<svg width="350" height="85" version="1.1" viewBox="0 0 350 85" xmlns="http://www.w3.org/2000/svg"><g transform="translate(1.684 -.48938)" aria-label="Synless"><path d="m20.883 66.336c11.349 0 18.773-6.4853 18.773-15.104s-5.9733-12.117-12.715-14.933l-8.448-3.7547c-4.4373-1.8773-10.581-4.352-10.581-10.837 0-6.144 5.2907-10.069 13.141-10.069 6.0587 0 10.837 2.304 14.336 5.7173l2.304-2.56c-3.6693-3.6693-9.3867-6.7413-16.555-6.7413-9.8133 0-17.152 5.7173-17.152 13.824 0 8.3627 6.9973 11.861 12.288 13.995l8.448 3.84c5.9733 2.56 11.008 4.7787 11.008 11.861 0 6.5707-5.7173 11.179-14.763 11.179-6.9973 0-13.141-2.9867-17.408-7.5947l-2.56 2.7307c4.6933 4.9493 11.264 8.448 19.883 8.448z"/><path d="m56.348 84c8.6187 0 13.739-6.656 16.128-13.568l19.285-46.08h-3.6693l-10.667 25.771c-1.4507 3.4987-3.1573 7.8507-4.7787 11.52h-0.34133c-1.9627-3.6693-4.0107-8.1067-5.632-11.52l-11.947-25.771h-3.9253l19.883 41.728-1.4507 3.584c-2.4747 6.2293-6.4853 10.837-12.8 10.837-1.4507 0-2.9867-0.34133-4.0107-0.68267l-1.024 3.328c1.1947 0.512 3.2427 0.85333 4.9493 0.85333z"/><path d="m105.81 65.312h3.84v-29.355c5.888-6.2293 9.8987-9.216 15.701-9.216 8.1067 0 11.52 4.352 11.52 13.568v25.003h3.84v-25.515c0-11.093-4.7787-16.469-14.763-16.469-6.5707 0-11.435 3.84-16.128 8.8747h-0.34133l-0.42667-7.8507h-3.2427z"/><path d="m183.34 66.336c4.0107 0 6.656-0.85333 10.155-2.56l-1.1947-2.9013c-2.9867 1.4507-5.8027 2.1333-8.448 2.1333-5.8027 0-8.96-3.072-8.96-9.5573v-49.493h-19.285v3.2427h15.531v45.739c0 9.3013 4.4373 13.397 12.203 13.397z"/><path d="m227.34 66.336c7.2533 0 11.861-2.3893 15.531-4.864l-1.536-2.816c-3.84 2.6453-8.192 4.4373-13.739 4.4373-9.5573 0-17.664-6.2293-18.005-17.664h34.816c0.17066-1.024 0.17066-2.1333 0.17066-3.1573 0-11.776-7.0827-18.944-18.347-18.944-10.667 0-20.48 8.192-20.48 21.504 0 13.483 9.728 21.504 21.589 21.504zm-1.024-39.765c8.3627 0 14.251 5.0347 14.848 15.616h-31.403c1.1093-9.984 8.704-15.616 16.555-15.616z"/><path d="m277.57 66.336c10.752 0 16.896-5.376 16.896-11.52s-3.1573-9.3867-17.323-12.373c-9.216-1.9627-13.483-4.096-13.483-8.448 0-3.84 2.9013-7.424 11.861-7.424 5.5467 0 10.24 1.792 13.909 4.5227l2.048-2.7307c-3.9253-2.9013-10.24-5.0347-15.701-5.0347-11.008 0-16.043 4.9493-16.043 10.923 0 5.9733 5.9733 9.3867 16.384 11.435 12.971 2.6453 14.421 5.632 14.421 9.3013 0 4.352-4.2667 8.1067-12.629 8.1067-8.6187 0-13.995-2.4747-18.603-5.9733l-1.9627 2.7307c4.864 3.4133 11.776 6.4853 20.224 6.4853z"/><path d="m328.74 66.336c10.752 0 16.896-5.376 16.896-11.52s-3.1573-9.3867-17.323-12.373c-9.216-1.9627-13.483-4.096-13.483-8.448 0-3.84 2.9013-7.424 11.861-7.424 5.5467 0 10.24 1.792 13.909 4.5227l2.048-2.7307c-3.9253-2.9013-10.24-5.0347-15.701-5.0347-11.008 0-16.043 4.9493-16.043 10.923 0 5.9733 5.9733 9.3867 16.384 11.435 12.971 2.6453 14.421 5.632 14.421 9.3013 0 4.352-4.2667 8.1067-12.629 8.1067-8.6187 0-13.995-2.4747-18.603-5.9733l-1.9627 2.7307c4.864 3.4133 11.776 6.4853 20.224 6.4853z"/></g><g transform="matrix(1.21 0 0 .605 -2.1598 -5.2055)" fill="#fc0" fill-opacity=".99497" aria-label="o"><path d="m6.0327 15.327c-3.4487 3.8103 0.16938 8.9975 14.561 8.9975 14.57 0 18.188-5.1873 14.74-8.9975-2.3448-2.5906-7.7929-4.2607-14.692-4.2607-6.8149 0-12.263 1.6701-14.608 4.2607m3.9067 0c1.3065-1.9684 5.5152-3.0346 10.697-3.0346 5.2282 0 9.4836 1.0662 10.79 3.0346 1.7264 2.601-2.4535 4.8551-10.818 4.8551-8.2899 0-12.395-2.2541-10.669-4.8551" fill="#fc0" fill-opacity=".99497"/></g></svg>
